PathFileType	4	(X/Y/Z)	s05c0202.trc
DataRate	CameraRate	NumFrames	NumMarkers	Units	OrigDataRate	OrigDataStartFrame	OrigNumFrames
200	200	4	49	mm	200	750	2000
Frame#	Time	racr			lacr			c7			jug			rlel			rdr			llel			ldr			s2			lic			ric			lasi			rasi			rpsi			lpsi			rgt			lgt			rth1			rth2			rth3			rth4			rlfc			rsh1			rsh2			rsh3			rsh4			rlmal			rmmal			rcal			rtoe			rmt5			lth1			lth2			lth4			lth3			llfc			lmfc			lsh1			lsh2			lsh3			lsh4			llmal			lmmal			lcal			ltoe			lmt5			SBIKE			LBIKE			RBIKE			
		X1	Y1	Z1	X2	Y2	Z2	X3	Y3	Z3	X4	Y4	Z4	X5	Y5	Z5	X6	Y6	Z6	X7	Y7	Z7	X8	Y8	Z8	X9	Y9	Z9	X10	Y10	Z10	X11	Y11	Z11	X12	Y12	Z12	X13	Y13	Z13	X14	Y14	Z14	X15	Y15	Z15	X16	Y16	Z16	X17	Y17	Z17	X18	Y18	Z18	X19	Y19	Z19	X20	Y20	Z20	X21	Y21	Z21	X22	Y22	Z22	X23	Y23	Z23	X24	Y24	Z24	X25	Y25	Z25	X26	Y26	Z26	X27	Y27	Z27	X28	Y28	Z28	X29	Y29	Z29	X30	Y30	Z30	X31	Y31	Z31	X32	Y32	Z32	X33	Y33	Z33	X34	Y34	Z34	X35	Y35	Z35	X36	Y36	Z36	X37	Y37	Z37	X38	Y38	Z38	X39	Y39	Z39	X40	Y40	Z40	X41	Y41	Z41	X42	Y42	Z42	X43	Y43	Z43	X44	Y44	Z44	X45	Y45	Z45	X46	Y46	Z46	X47	Y47	Z47	X48	Y48	Z48	X49	Y49	Z49	
750	3.7500	493.178996	1273.274486	-170.221550	484.411929	1260.650176	-418.335803	464.999192	1347.676217	-302.171551	403.251478	1194.545695	-295.572919	496.037576	1092.355640	41.740679	662.897942	963.177988	-74.393809	449.611448	1059.154240	-634.836381	647.979173	966.403042	-496.263978	-112.797241	1205.193169	-237.203944	7.036621	1224.259805	-394.716192	52.727198	1203.951139	-113.160509	50.735963	1165.716584	-364.536803	85.267648	1140.975829	-149.691142	-67.650587	1247.856506	-196.725442	-80.984191	1259.831383	-280.246465	-8.554587	1068.629201	-93.737433	-48.673736	1136.917890	-422.992983	64.867029	969.404908	-88.339814	127.030984	906.060979	-94.628213	147.442389	820.217031	-100.705061	156.077538	923.598862	-109.838755	216.847611	688.312539	-124.686523	151.980820	601.041323	-92.765063	137.538271	514.316776	-103.761651	85.762138	445.730010	-104.024601	163.460785	505.441834	-131.218758	37.099443	316.445503	-107.656460	56.985343	338.531837	-189.925657	-38.723299	312.758947	-155.444216	215.169314	159.159420	-157.880616	116.192266	184.678292	-91.469922	69.840559	1063.432364	-445.049942	156.007789	1055.685231	-442.924123	168.907952	1085.837439	-423.578272	228.451211	1001.761113	-445.846719	353.436629	917.521397	-418.449352	344.075009	899.995194	-307.860077	283.631093	811.454517	-438.077604	265.908234	726.014051	-430.404190	206.116664	660.458387	-429.566672	295.541669	712.837318	-409.880730	157.444159	547.100404	-425.578345	188.961618	570.714942	-349.753559	96.276786	498.996335	-384.045126	389.852920	494.905631	-410.781492	280.133471	462.865645	-467.398217	-220.182971	910.382498	-275.526272	-53.533420	79.217952	-475.087830	-53.502323	79.269647	-77.487460	
751	3.7550	493.205307	1272.766728	-171.247907	483.520109	1261.871177	-419.332480	464.322251	1347.866619	-302.768478	402.942407	1194.497025	-296.917916	495.113079	1092.382563	41.508268	662.147459	963.081683	-74.477355	448.977369	1059.648762	-634.537755	647.289180	966.443072	-496.279598	-113.552988	1204.698626	-236.909507	6.125230	1223.789394	-394.246463	52.375545	1203.101027	-112.993190	50.112131	1165.349939	-364.681074	84.683370	1140.111331	-149.879151	-68.034056	1247.039946	-196.291897	-81.470699	1259.146515	-279.725501	-7.695004	1068.125284	-93.550000	-49.889833	1135.659713	-422.536886	68.589936	971.192217	-89.022329	132.042992	909.225402	-95.976564	154.401476	823.932925	-101.814126	160.544756	927.282181	-111.213984	224.475697	692.315339	-125.252087	157.983100	606.198855	-93.414292	141.089810	519.804373	-104.203739	87.621701	452.499870	-103.940935	166.453240	510.364241	-131.988282	34.426876	324.825919	-107.402513	54.768685	346.471161	-189.586732	-41.585933	323.540782	-154.908540	207.586344	162.121991	-157.868223	109.453697	190.649272	-91.451190	68.176839	1060.089657	-445.361714	154.279228	1051.141792	-443.705665	167.758351	1081.297220	-424.732740	225.897496	996.142680	-446.592081	349.817659	910.622975	-419.077461	340.667059	893.349505	-308.717229	281.449647	802.451202	-438.772906	265.969393	716.552574	-430.715597	207.784332	649.437124	-429.642881	295.857286	704.312553	-410.013311	162.255253	536.247065	-425.360776	193.176943	560.675537	-349.647558	102.441051	486.388839	-383.696801	396.014157	490.936246	-411.279047	287.148642	455.671425	-467.651465	-220.127933	910.384658	-275.464905	-53.553372	79.176594	-475.044348	-53.494518	79.264130	-77.465806	
752	3.7600	493.147187	1272.398901	-172.082859	482.437494	1263.106524	-420.175290	463.648287	1348.168945	-303.118757	402.647409	1194.480621	-298.130877	494.151609	1092.323081	41.267700	661.381854	963.039326	-74.799329	448.438662	1060.460104	-634.364210	646.564639	966.492125	-496.350528	-114.284964	1203.695255	-236.489454	5.537089	1223.213414	-394.300285	52.000063	1202.013324	-112.868958	49.406917	1164.533911	-364.809004	84.264948	1139.410565	-149.975096	-69.168874	1246.353139	-196.770845	-81.917022	1257.956000	-279.375565	-6.591061	1067.567509	-93.136564	-51.293451	1133.980769	-422.090048	72.256145	973.064945	-89.766819	136.772110	912.300506	-96.915672	160.875501	827.560252	-102.353686	164.924620	930.901917	-112.062638	231.708655	696.227501	-125.797922	163.730100	611.199673	-94.041655	144.441125	525.393208	-104.662287	89.256337	459.555361	-103.925262	169.345227	515.015224	-132.676121	32.100886	333.245608	-107.002669	52.830657	354.648235	-189.238955	-44.102863	334.326898	-154.369781	200.241759	165.584395	-157.750349	102.977423	196.877985	-91.474741	66.493671	1056.412225	-445.654331	152.416548	1046.357501	-444.448120	166.593896	1076.645958	-425.774778	223.362844	990.465069	-447.181703	346.473751	903.906530	-419.574139	337.522582	886.687443	-309.645038	279.315632	793.586454	-439.650255	266.291713	707.453211	-431.285281	210.046965	638.800211	-430.040175	296.455560	695.954405	-410.404257	167.391029	525.628631	-425.640396	197.596209	550.989978	-349.985536	108.677942	474.290574	-383.890001	402.056273	486.223416	-411.341051	294.204647	448.130336	-467.763928	-220.091922	910.391779	-275.382289	-53.503346	79.239179	-475.086372	-53.486622	79.265520	-77.459525	
753	3.7650	493.086217	1272.181859	-172.687530	481.286219	1264.412182	-420.909217	463.008992	1348.449761	-303.500941	402.365169	1194.494371	-299.214769	493.354971	1092.129253	40.783618	660.506069	962.887334	-75.390265	447.748637	1061.402575	-634.069622	645.779951	966.528580	-496.363963	-115.102875	1202.244213	-236.122068	4.554097	1222.271364	-394.094839	51.659084	1200.603570	-112.776811	48.847555	1163.621305	-364.978155	83.915146	1138.448395	-150.144510	-69.748640	1245.040633	-196.245991	-82.567908	1256.506160	-278.950310	-5.263241	1066.917572	-92.554622	-52.746707	1131.921647	-421.637300	75.634207	974.919525	-90.453471	141.241497	915.232268	-97.500475	166.827323	831.110114	-102.874278	169.073659	934.334303	-112.368801	238.592457	699.978265	-126.375185	169.184217	616.139269	-94.609816	147.582242	530.899253	-104.954466	90.656728	466.616310	-103.897535	171.998483	519.901436	-133.158356	29.860945	341.954156	-106.413704	51.248801	362.645291	-188.801515	-46.364995	345.204219	-153.717920	193.087543	169.631142	-157.789281	96.766178	203.650398	-91.325005	64.769149	1052.506303	-445.925042	150.532689	1041.418895	-445.083066	165.155332	1071.903488	-427.125797	220.808487	984.593921	-447.567693	342.190812	896.665425	-421.106756	334.503668	880.204180	-310.426944	277.387175	784.976924	-440.624231	266.828193	698.372454	-432.123408	212.553445	628.401331	-430.760037	297.332555	687.998925	-411.239706	172.785801	514.982566	-426.225769	202.214469	541.274994	-350.418146	114.908804	462.664353	-384.417783	408.113696	480.733390	-411.222518	301.129298	440.232389	-467.855439	-220.016601	910.397023	-275.248916	-53.485083	79.201215	-475.006491	-53.473212	79.237035	-77.438819	
